<svg width="1064" height="1079" viewBox="0 0 1064 1079" fill="none" xmlns="http://www.w3.org/2000/svg">
<path d="M655.051 112.807C643.584 115.74 629.984 122.94 621.717 130.54C608.784 142.407 593.984 150.94 580.517 154.407C572.917 156.274 570.784 156.407 565.317 154.94C557.451 152.807 550.784 149.34 545.851 145.074C543.717 143.074 541.717 141.874 541.317 142.274C540.917 142.54 542.384 146.274 544.517 150.54C554.784 171.74 579.451 184.807 618.251 189.74C629.451 191.074 635.317 191.074 648.917 189.74C658.117 188.94 667.584 187.607 669.717 186.94C671.984 186.274 676.384 185.074 679.717 184.14C687.051 182.007 703.984 173.34 710.384 168.407C726.517 156.007 727.717 156.274 725.184 172.14C722.784 188.54 725.051 195.607 737.317 209.74C744.651 218.274 745.051 218.94 745.051 225.874C745.051 234.674 739.184 247.607 732.651 253.074C726.784 258.14 710.117 265.607 669.717 281.474C634.251 295.474 631.184 296.674 626.117 298.807C624.384 299.607 619.184 301.474 614.384 303.074C609.584 304.674 605.184 306.54 604.517 307.207C603.717 307.74 602.384 308.274 601.451 308.274C600.517 308.274 596.784 309.474 593.317 311.074C589.851 312.54 585.184 314.674 582.784 315.607C577.051 318.14 573.717 322.807 561.851 344.274C559.717 348.274 553.717 358.14 548.784 366.007C543.851 374.007 539.717 380.807 539.717 381.207C539.717 382.14 531.584 393.74 526.651 400.007L521.984 405.74L516.384 400.274C503.984 388.14 497.051 371.607 497.051 354.407C497.051 331.874 505.051 315.207 523.051 300.274C538.651 287.34 555.317 281.607 603.717 272.807C606.251 272.407 613.851 270.807 620.384 269.34C627.051 268.007 634.784 266.274 637.717 265.607C640.651 264.94 645.184 263.874 647.717 263.207C650.251 262.407 655.984 260.807 660.384 259.607C680.784 254.14 709.051 243.074 709.051 240.54C709.051 239.34 698.384 233.74 684.384 227.474C667.051 219.874 644.917 213.874 612.384 208.007C599.851 205.74 549.851 205.74 538.384 208.007C533.584 208.94 526.384 210.407 522.384 211.074C510.117 213.474 487.851 221.34 473.984 228.407C440.917 245.074 413.451 273.34 398.251 306.674C388.784 327.34 388.517 327.607 381.051 330.274C376.251 332.007 364.384 332.274 306.251 332.274H237.051L232.384 335.207C226.517 339.074 223.184 346.94 224.384 354.274C225.317 360.14 226.651 362.274 232.251 366.674L236.117 369.607H301.584C340.784 369.607 368.917 370.14 371.851 370.94C380.651 373.34 382.117 376.407 383.717 394.94C385.851 418.14 389.051 429.874 399.851 451.607C408.251 468.674 416.917 480.274 433.584 496.94C455.051 518.14 465.317 524.407 531.051 556.274C597.717 588.407 657.184 618.674 667.317 625.474C673.984 629.874 682.651 637.074 686.517 641.34C725.451 683.34 703.451 745.874 644.784 759.474C629.451 763.074 607.717 764.54 593.984 762.94C575.851 760.807 561.184 757.74 554.784 754.674C552.251 753.474 550.917 754.007 544.784 759.074C540.917 762.274 537.451 765.207 537.051 765.74C535.584 767.34 478.251 814.807 469.317 821.607C464.117 825.607 459.851 829.74 459.717 830.54C459.717 834.007 509.717 853.34 529.717 857.607C532.651 858.274 538.917 859.607 543.717 860.674C565.984 865.607 593.184 867.34 620.651 865.607C661.851 862.94 699.584 851.474 731.451 831.74C778.517 802.54 811.317 755.207 820.517 703.074C824.384 681.607 822.917 648.94 817.451 628.274C816.384 624.274 815.051 619.074 814.384 616.94C809.851 599.34 792.251 569.607 776.784 553.607C753.984 530.007 733.051 516.407 671.717 485.607C580.651 439.874 547.717 422.54 547.717 420.407C547.717 419.74 550.251 416.674 553.451 413.474C567.317 398.94 593.584 370.674 596.117 367.34C597.717 365.207 599.851 362.807 600.784 361.74C601.851 360.674 604.917 356.807 607.584 353.074C614.251 344.007 615.184 343.34 624.517 340.94C635.584 338.007 664.117 332.274 667.584 332.274C670.251 332.274 670.384 332.94 670.384 346.14C670.384 371.607 661.451 398.807 648.117 413.607C642.251 420.14 631.451 426.54 623.451 428.14C616.651 429.607 617.717 431.74 627.317 436.407C632.251 438.674 651.584 448.007 670.117 457.074C688.784 466.14 704.117 473.607 704.517 473.607C704.784 473.607 706.384 470.807 707.984 467.207C712.784 457.074 723.717 439.207 728.251 434.407C732.517 429.74 742.517 423.074 753.584 417.607L759.984 414.274L762.917 418.007C764.384 420.14 767.184 424.54 769.051 428.007C777.717 444.14 789.717 463.474 793.317 466.94C798.651 472.274 805.584 472.274 815.984 467.074C825.317 462.274 831.584 456.674 846.117 439.607C852.517 432.274 857.984 426.007 858.384 425.607C860.384 423.607 871.984 409.207 877.051 402.274C880.251 397.874 892.117 385.074 903.451 373.74L923.984 353.207L923.451 341.074C922.917 327.474 920.251 320.274 914.917 317.74C913.051 316.94 906.517 316.274 900.384 316.274H889.051L883.717 326.94C878.651 337.074 878.384 338.007 878.384 350.274V363.074L867.451 374.007C861.317 380.007 852.517 387.874 847.717 391.34C842.917 394.94 837.851 398.807 836.384 400.007C832.117 403.474 815.317 413.607 813.717 413.607C812.917 413.607 808.517 406.274 804.117 397.207C796.251 381.74 795.851 380.54 795.984 371.607C795.984 361.474 795.051 359.074 785.184 344.407C769.317 321.074 763.317 299.607 767.717 282.274C769.984 273.607 776.651 261.207 781.717 256.274C785.717 252.407 787.184 251.874 792.651 252.007C796.251 252.007 800.784 252.807 802.784 253.474C804.917 254.274 808.917 254.94 811.851 254.94C816.917 254.94 817.184 254.674 820.384 247.74C822.251 243.74 823.717 239.34 823.717 237.874C823.717 236.407 824.517 234.54 825.584 233.607C826.651 232.807 827.717 229.874 827.984 227.207C828.384 222.807 828.917 222.14 833.584 220.94C836.517 220.007 839.051 218.807 839.317 218.007C839.584 217.207 837.851 212.94 835.451 208.674C831.184 201.34 831.051 200.14 830.384 183.607C829.717 168.007 829.317 165.474 825.851 158.674C817.317 141.474 799.851 132.274 775.584 132.274C763.984 132.274 758.784 133.074 751.051 136.274C739.717 140.807 740.384 140.94 733.184 135.207C708.384 115.607 678.384 106.94 655.051 112.807Z" fill="#072321"/>
<path d="M155.717 264.274C145.317 265.34 139.184 269.074 136.917 276.007C133.451 286.54 139.051 297.74 149.051 300.14C151.584 300.674 199.984 301.207 256.384 301.074C352.517 300.94 359.317 300.807 363.451 298.54C370.251 294.807 373.317 288.94 372.651 280.54C372.117 272.14 368.651 268.007 359.984 265.074C354.651 263.207 341.584 262.94 259.184 263.074C207.051 263.207 160.517 263.74 155.717 264.274Z" fill="#021C1D"/>
<path d="M150.917 402.807C143.984 403.34 138.784 404.54 136.517 406.007C124.651 413.874 124.917 432.007 136.917 438.674C142.117 441.607 142.117 441.607 237.851 441.607L333.717 441.474L339.717 438.407C354.517 430.94 354.784 412.007 340.117 404.807C335.317 402.407 330.251 402.274 248.384 402.14C200.784 402.007 156.917 402.407 150.917 402.807Z" fill="#062120"/>
<path d="M317.184 464.007C307.317 468.94 305.317 482.94 313.184 490.807C317.851 495.473 321.717 496.273 340.117 496.273C358.651 496.273 364.917 493.873 368.251 485.473C371.851 476.407 369.584 469.607 361.051 464.407C356.917 462.007 354.384 461.607 339.051 461.607C325.184 461.607 320.784 462.14 317.184 464.007Z" fill="#237750"/>
<path d="M197.451 524.274C191.317 528.007 188.384 533.074 188.651 539.74C188.917 547.874 192.251 553.34 198.784 556.407C204.117 558.807 208.784 558.94 290.117 558.94C373.451 558.94 375.851 558.807 381.451 556.274C394.384 550.14 395.317 532.94 383.184 524.54L378.917 521.607H290.251C204.784 521.607 201.584 521.74 197.451 524.274Z" fill="#237750"/>
<path d="M286.384 607.207C283.984 608.94 280.784 611.74 279.451 613.607C274.251 620.674 277.051 633.874 284.784 639.607C288.251 642.274 290.517 642.274 397.051 642.274C503.317 642.274 505.851 642.274 510.117 639.607C519.184 634.274 522.251 621.74 516.651 613.474C510.251 603.74 516.651 604.274 397.584 604.274H290.784L286.384 607.207Z" fill="#237750"/>
<path d="M562.784 605.874C562.251 606.807 557.984 615.074 553.451 624.274C548.917 633.474 543.717 643.34 542.117 646.274C530.651 666.007 511.717 696.274 506.651 702.674C503.584 706.54 500.384 708.274 486.384 713.34C444.117 728.674 433.851 736.14 413.051 766.54C410.251 770.674 390.651 796.14 386.517 801.074C384.651 803.34 380.651 808.14 377.717 811.74C362.651 830.14 346.784 846.674 340.784 849.74C336.917 851.74 333.051 852.274 322.384 852.274C302.651 852.274 294.784 856.674 290.384 870.274C289.451 873.207 288.251 876.94 287.584 878.674C286.917 880.407 286.384 882.674 286.384 883.74C286.384 887.074 276.517 907.207 270.784 915.74C263.317 926.674 252.651 937.207 241.984 944.14C231.317 951.074 230.517 953.607 239.184 953.607C258.117 953.607 270.517 947.207 311.184 916.674C328.917 903.474 344.784 891.34 346.517 889.874C348.251 888.407 359.984 878.94 372.384 868.94C384.917 859.074 395.984 850.14 397.051 849.207C398.117 848.274 420.384 830.94 446.384 810.674C472.384 790.407 501.184 767.874 510.384 760.407C521.451 751.607 531.184 745.074 539.451 741.074C551.984 734.807 560.384 728.007 590.384 699.607C605.851 685.074 642.384 647.874 642.384 646.807C642.384 645.874 634.784 641.607 607.051 626.94C599.717 623.074 587.317 616.407 579.451 612.007C571.584 607.74 564.917 604.274 564.517 604.274C564.117 604.274 563.451 605.074 562.784 605.874Z" fill="#021C1D"/>
<path d="M320.384 674.94C237.984 675.607 230.784 675.74 227.584 678.007C217.717 684.674 217.984 701.34 228.117 708.807C231.851 711.607 232.651 711.607 322.784 711.607H413.717L418.117 708.54C422.784 705.074 425.851 700.14 426.517 694.94C427.051 690.54 424.251 682.54 421.317 679.874C415.184 674.274 413.584 674.274 320.384 674.94Z" fill="#237750"/>
<path d="M295.184 738.54C286.784 740.674 279.184 748.407 274.251 759.607C272.517 763.607 270.251 766.14 268.117 767.074C266.117 767.74 248.917 768.54 229.717 768.94C199.984 769.34 194.117 769.74 190.251 771.607C180.651 776.54 176.917 782.674 176.651 793.874C176.517 803.34 180.517 810.807 188.651 816.54L195.051 820.94L271.051 821.34L347.051 821.74L363.051 798.94C371.851 786.407 379.717 775.474 380.384 774.54C383.584 770.94 403.717 740.14 403.717 738.94C403.717 737.607 300.251 737.207 295.184 738.54Z" fill="#237750"/>
</svg>
